<mxfile host="app.diagrams.net" modified="2020-03-29T08:34:46.655Z" agent="Mozilla/5.0 (Windows NT 10.0; Win64; x64) AppleWebKit/537.36 (KHTML, like Gecko) Chrome/80.0.3987.149 Safari/537.36" etag="cPsWrF-GaI0Zg3oWj6Mc" version="12.9.3" type="github">
  <diagram id="5Iz8f_Ax0A9QKb2tDx48" name="Page-1">
    <mxGraphModel dx="790" dy="295" grid="1" gridSize="10" guides="1" tooltips="1" connect="1" arrows="1" fold="1" page="1" pageScale="1" pageWidth="850" pageHeight="1100" math="0" shadow="0">
      <root>
        <mxCell id="0" />
        <mxCell id="1" parent="0" />
        <mxCell id="hYN0mLVrReHClh19Mcnz-21" value="" style="rounded=0;whiteSpace=wrap;html=1;fillColor=#ffe6cc;strokeColor=#d79b00;" vertex="1" parent="1">
          <mxGeometry x="400" y="306" width="370" height="60" as="geometry" />
        </mxCell>
        <mxCell id="hYN0mLVrReHClh19Mcnz-20" value="" style="rounded=0;whiteSpace=wrap;html=1;fillColor=#ffe6cc;strokeColor=#d79b00;" vertex="1" parent="1">
          <mxGeometry x="400" y="217" width="370" height="62" as="geometry" />
        </mxCell>
        <mxCell id="hYN0mLVrReHClh19Mcnz-19" value="" style="rounded=0;whiteSpace=wrap;html=1;fillColor=#ffe6cc;strokeColor=#d79b00;" vertex="1" parent="1">
          <mxGeometry x="260" y="120" width="510" height="70" as="geometry" />
        </mxCell>
        <mxCell id="hYN0mLVrReHClh19Mcnz-18" style="edgeStyle=orthogonalEdgeStyle;rounded=0;orthogonalLoop=1;jettySize=auto;html=1;entryX=0.5;entryY=0;entryDx=0;entryDy=0;" edge="1" parent="1" source="hYN0mLVrReHClh19Mcnz-1" target="hYN0mLVrReHClh19Mcnz-2">
          <mxGeometry relative="1" as="geometry" />
        </mxCell>
        <mxCell id="hYN0mLVrReHClh19Mcnz-1" value="" style="shape=ellipse;html=1;fillColor=#000000;fontSize=18;fontColor=#ffffff;" vertex="1" parent="1">
          <mxGeometry x="300" y="60" width="40" height="40" as="geometry" />
        </mxCell>
        <mxCell id="hYN0mLVrReHClh19Mcnz-11" style="edgeStyle=orthogonalEdgeStyle;rounded=0;orthogonalLoop=1;jettySize=auto;html=1;entryX=0;entryY=0.5;entryDx=0;entryDy=0;" edge="1" parent="1" source="hYN0mLVrReHClh19Mcnz-2" target="hYN0mLVrReHClh19Mcnz-3">
          <mxGeometry relative="1" as="geometry" />
        </mxCell>
        <mxCell id="hYN0mLVrReHClh19Mcnz-2" value="Requirements Proposed" style="shape=rect;rounded=1;html=1;whiteSpace=wrap;align=center;" vertex="1" parent="1">
          <mxGeometry x="270" y="140" width="100" height="40" as="geometry" />
        </mxCell>
        <mxCell id="hYN0mLVrReHClh19Mcnz-12" style="edgeStyle=orthogonalEdgeStyle;rounded=0;orthogonalLoop=1;jettySize=auto;html=1;entryX=0;entryY=0.5;entryDx=0;entryDy=0;" edge="1" parent="1" source="hYN0mLVrReHClh19Mcnz-3" target="hYN0mLVrReHClh19Mcnz-4">
          <mxGeometry relative="1" as="geometry" />
        </mxCell>
        <mxCell id="hYN0mLVrReHClh19Mcnz-3" value="Requirements/Design submitted" style="shape=rect;rounded=1;html=1;whiteSpace=wrap;align=center;" vertex="1" parent="1">
          <mxGeometry x="425" y="140" width="145" height="40" as="geometry" />
        </mxCell>
        <mxCell id="hYN0mLVrReHClh19Mcnz-13" style="edgeStyle=orthogonalEdgeStyle;rounded=0;orthogonalLoop=1;jettySize=auto;html=1;entryX=0.5;entryY=0;entryDx=0;entryDy=0;" edge="1" parent="1" source="hYN0mLVrReHClh19Mcnz-4" target="hYN0mLVrReHClh19Mcnz-5">
          <mxGeometry relative="1" as="geometry">
            <Array as="points">
              <mxPoint x="685" y="200" />
              <mxPoint x="498" y="200" />
            </Array>
          </mxGeometry>
        </mxCell>
        <mxCell id="hYN0mLVrReHClh19Mcnz-4" value="Requirements/Design Accepted" style="shape=rect;rounded=1;html=1;whiteSpace=wrap;align=center;" vertex="1" parent="1">
          <mxGeometry x="620" y="140" width="130" height="40" as="geometry" />
        </mxCell>
        <mxCell id="hYN0mLVrReHClh19Mcnz-14" style="edgeStyle=orthogonalEdgeStyle;rounded=0;orthogonalLoop=1;jettySize=auto;html=1;entryX=0;entryY=0.5;entryDx=0;entryDy=0;" edge="1" parent="1" source="hYN0mLVrReHClh19Mcnz-5" target="hYN0mLVrReHClh19Mcnz-6">
          <mxGeometry relative="1" as="geometry" />
        </mxCell>
        <mxCell id="hYN0mLVrReHClh19Mcnz-5" value="UAT Started" style="shape=rect;rounded=1;html=1;whiteSpace=wrap;align=center;" vertex="1" parent="1">
          <mxGeometry x="448" y="228" width="100" height="40" as="geometry" />
        </mxCell>
        <mxCell id="hYN0mLVrReHClh19Mcnz-15" style="edgeStyle=orthogonalEdgeStyle;rounded=0;orthogonalLoop=1;jettySize=auto;html=1;entryX=0.5;entryY=0;entryDx=0;entryDy=0;" edge="1" parent="1" source="hYN0mLVrReHClh19Mcnz-6" target="hYN0mLVrReHClh19Mcnz-7">
          <mxGeometry relative="1" as="geometry">
            <Array as="points">
              <mxPoint x="685" y="288" />
              <mxPoint x="498" y="288" />
            </Array>
          </mxGeometry>
        </mxCell>
        <mxCell id="hYN0mLVrReHClh19Mcnz-6" value="UAT Accepted" style="shape=rect;rounded=1;html=1;whiteSpace=wrap;align=center;" vertex="1" parent="1">
          <mxGeometry x="635" y="228" width="100" height="40" as="geometry" />
        </mxCell>
        <mxCell id="hYN0mLVrReHClh19Mcnz-16" style="edgeStyle=orthogonalEdgeStyle;rounded=0;orthogonalLoop=1;jettySize=auto;html=1;entryX=0;entryY=0.5;entryDx=0;entryDy=0;" edge="1" parent="1" source="hYN0mLVrReHClh19Mcnz-7" target="hYN0mLVrReHClh19Mcnz-8">
          <mxGeometry relative="1" as="geometry" />
        </mxCell>
        <mxCell id="hYN0mLVrReHClh19Mcnz-7" value="PROD Started" style="shape=rect;rounded=1;html=1;whiteSpace=wrap;align=center;" vertex="1" parent="1">
          <mxGeometry x="448" y="316" width="100" height="40" as="geometry" />
        </mxCell>
        <mxCell id="hYN0mLVrReHClh19Mcnz-17" style="edgeStyle=orthogonalEdgeStyle;rounded=0;orthogonalLoop=1;jettySize=auto;html=1;exitX=0.5;exitY=1;exitDx=0;exitDy=0;entryX=0.5;entryY=0;entryDx=0;entryDy=0;entryPerimeter=0;" edge="1" parent="1" source="hYN0mLVrReHClh19Mcnz-8" target="hYN0mLVrReHClh19Mcnz-9">
          <mxGeometry relative="1" as="geometry" />
        </mxCell>
        <mxCell id="hYN0mLVrReHClh19Mcnz-8" value="PROD Accepted" style="shape=rect;rounded=1;html=1;whiteSpace=wrap;align=center;" vertex="1" parent="1">
          <mxGeometry x="640" y="316" width="100" height="40" as="geometry" />
        </mxCell>
        <mxCell id="hYN0mLVrReHClh19Mcnz-9" value="" style="shape=mxgraph.sysml.actFinal;html=1;verticalLabelPosition=bottom;labelBackgroundColor=#ffffff;verticalAlign=top;" vertex="1" parent="1">
          <mxGeometry x="670" y="406" width="40" height="40" as="geometry" />
        </mxCell>
      </root>
    </mxGraphModel>
  </diagram>
</mxfile>
